<svg width="849" height="380" viewBox="0 0 849 380" fill="none" xmlns="http://www.w3.org/2000/svg">
<mask id="path-1-inside-1_1_235" fill="white">
<path d="M50 20C50 8.9543 58.9543 0 70 0H778C789.046 0 798 8.95431 798 20V300H50V20Z"/>
</mask>
<path d="M50 20C50 8.9543 58.9543 0 70 0H778C789.046 0 798 8.95431 798 20V300H50V20Z" fill="url(#paint0_linear_1_235)"/>
<path d="M49 20C49 8.40202 58.402 -1 70 -1H778C789.598 -1 799 8.40202 799 20H797C797 9.50659 788.493 1 778 1H70C59.5066 1 51 9.50659 51 20H49ZM798 300H50H798ZM49 300V20C49 8.40202 58.402 -1 70 -1V1C59.5066 1 51 9.50659 51 20V300H49ZM778 -1C789.598 -1 799 8.40202 799 20V300H797V20C797 9.50659 788.493 1 778 1V-1Z" fill="black" fill-opacity="0.1" mask="url(#path-1-inside-1_1_235)"/>
<rect x="354.064" y="59.17" width="137" height="50" rx="10" transform="rotate(-3 354.064 59.17)" fill="#482307"/>
<path d="M377.87 93.3616C376.174 93.4505 374.462 93.2221 372.733 92.6764C371.004 92.1307 369.535 91.368 368.326 90.3883L370.688 86.4937C371.648 87.2883 372.75 87.9138 373.994 88.3701C375.248 88.8155 376.453 89.008 377.607 88.9474C378.627 88.894 379.48 88.6459 380.166 88.2032C380.862 87.7598 381.194 87.2209 381.161 86.5864C381.147 86.3367 381.084 86.1158 380.969 85.9236C380.865 85.7205 380.689 85.5419 380.441 85.388C380.203 85.2336 379.972 85.1049 379.748 85.0019C379.533 84.888 379.214 84.7795 378.792 84.6765C378.369 84.5631 378.025 84.482 377.762 84.4332C377.508 84.3734 377.118 84.2948 376.592 84.1972C371.388 83.2286 368.696 81.0176 368.515 77.564C368.411 75.5875 369.108 73.9551 370.605 72.6666C372.102 71.3782 374.125 70.6671 376.674 70.5336C378.307 70.448 379.813 70.6194 381.191 71.0479C382.58 71.4758 383.722 72.073 384.618 72.8397L382.506 76.7368C381.829 76.1569 380.976 75.7009 379.947 75.3689C378.918 75.0369 377.893 74.8976 376.874 74.951C375.886 75.0028 375.084 75.2326 374.469 75.6403C373.854 76.0377 373.561 76.5276 373.592 77.1101C373.61 77.4534 373.735 77.7598 373.968 78.0292C374.202 78.2986 374.526 78.5215 374.942 78.6979C375.369 78.8737 375.799 79.0181 376.232 79.131C376.676 79.2433 377.182 79.3419 377.75 79.4269C378.139 79.49 378.503 79.5596 378.84 79.6358C379.178 79.7015 379.643 79.8232 380.236 80.0007C380.829 80.1678 381.366 80.3587 381.847 80.5735C382.327 80.7778 382.842 81.0585 383.393 81.4156C383.943 81.7623 384.407 82.15 384.784 82.5788C385.171 82.9966 385.5 83.5113 385.772 84.1229C386.044 84.7241 386.198 85.3784 386.235 86.0857C386.304 87.4068 385.982 88.6129 385.267 89.7039C384.552 90.7844 383.548 91.6454 382.257 92.2868C380.966 92.9178 379.503 93.276 377.87 93.3616ZM389.271 92.3729L388.116 70.3251L393.078 70.065L394.233 92.1129L389.271 92.3729ZM415.094 68.9112L421.133 68.5947L422.289 90.6426L417.342 90.9018L416.601 76.7494L411.577 87.4801L408.768 87.6273L402.667 77.4796L403.408 91.6321L398.446 91.8921L397.291 69.8442L403.423 69.5229L409.814 80.1091L415.094 68.9112ZM435.161 67.8596C437.366 67.744 439.245 68.3653 440.797 69.7234C442.349 71.0711 443.181 72.8164 443.293 74.9593C443.406 77.1022 442.761 78.9301 441.359 80.443C439.957 81.9456 438.153 82.7546 435.947 82.8702L431.095 83.1245L431.463 90.1617L426.502 90.4218L425.346 68.3739L435.161 67.8596ZM435.609 78.2096C436.389 78.1688 437.025 77.8642 437.517 77.296C438.019 76.7169 438.249 76.0269 438.207 75.2259C438.164 74.4145 437.863 73.7522 437.305 73.2391C436.756 72.7254 436.092 72.4891 435.312 72.5299L430.552 72.7794L430.85 78.4591L435.609 78.2096ZM451.441 84.4365L460.632 83.9548L460.876 88.6203L446.724 89.362L445.568 67.3141L450.53 67.0541L451.441 84.4365ZM468.418 83.5468L478.576 83.0144L478.82 87.6799L463.7 88.4723L462.545 66.4244L477.509 65.6402L477.753 70.3057L467.751 70.8298L467.959 74.7931L476.9 74.3246L477.145 78.9901L468.204 79.4586L468.418 83.5468Z" fill="white"/>
<rect x="347.193" y="119.102" width="156" height="50" rx="10" transform="rotate(3 347.193 119.102)" fill="#E15549"/>
<path d="M374.843 138.168L365.325 137.67L365.105 141.851L373.375 142.285L373.131 146.95L364.861 146.517L364.414 155.052L359.452 154.792L360.607 132.744L375.087 133.503L374.843 138.168ZM384.483 138.126L385.446 138.568L387.161 139.581L385.565 141.969L383.851 140.941L383.12 140.261L383.223 141.268L383.124 143.156L380.253 143.005L380.352 141.117L380.592 140.128L379.762 140.726L377.95 141.57L376.644 139.03L378.459 138.139L379.396 137.859L378.496 137.421L376.781 136.408L378.346 134.018L380.091 135.048L380.822 135.728L380.687 134.72L380.786 132.832L383.658 132.982L383.559 134.87L383.35 135.861L384.179 135.262L385.961 134.417L387.298 136.959L385.484 137.834L384.483 138.126ZM399.345 157.274C397.712 157.188 396.188 156.816 394.772 156.158C393.357 155.489 392.162 154.623 391.185 153.56C390.208 152.497 389.459 151.248 388.94 149.813C388.421 148.367 388.204 146.843 388.288 145.241C388.372 143.639 388.747 142.152 389.414 140.778C390.081 139.395 390.956 138.225 392.038 137.27C393.121 136.315 394.401 135.584 395.877 135.078C397.354 134.571 398.908 134.36 400.542 134.446C402.591 134.553 404.44 135.093 406.089 136.067C407.75 137.03 409.064 138.314 410.034 139.919L405.604 142.347C405.047 141.431 404.303 140.693 403.373 140.133C402.442 139.573 401.416 139.264 400.292 139.205C398.42 139.107 396.821 139.659 395.496 140.862C394.171 142.055 393.459 143.603 393.359 145.507C393.259 147.411 393.805 149.03 394.998 150.365C396.19 151.69 397.723 152.401 399.595 152.499C400.729 152.559 401.783 152.363 402.755 151.914C403.739 151.454 404.556 150.798 405.205 149.946L409.357 152.823C408.226 154.318 406.783 155.463 405.031 156.258C403.29 157.042 401.394 157.381 399.345 157.274ZM425.33 158.245L419.064 150.03L417.114 152.009L416.81 157.798L411.848 157.538L413.004 135.49L417.966 135.75L417.467 145.268L426.173 136.18L432.462 136.51L422.45 146.625L431.79 158.583L425.33 158.245ZM433.381 158.666L434.537 136.619L439.499 136.879L438.343 158.927L433.381 158.666ZM457.864 137.841L462.826 138.101L461.671 160.149L456.646 159.886L448.225 145.926L447.518 159.407L442.556 159.147L443.712 137.099L448.705 137.361L457.158 151.323L457.864 137.841ZM477.437 148.317L488.172 148.88L488.083 150.581C487.97 152.724 487.385 154.633 486.327 156.309C485.28 157.986 483.877 159.268 482.12 160.157C480.364 161.035 478.424 161.418 476.302 161.307C474.679 161.222 473.165 160.851 471.76 160.193C470.356 159.525 469.17 158.659 468.204 157.597C467.237 156.534 466.494 155.285 465.975 153.85C465.467 152.405 465.254 150.881 465.338 149.279C465.422 147.677 465.798 146.19 466.464 144.816C467.131 143.433 468.006 142.263 469.089 141.308C470.172 140.353 471.451 139.622 472.928 139.116C474.404 138.609 475.959 138.398 477.592 138.484C479.485 138.583 481.213 139.054 482.775 139.898C484.348 140.731 485.605 141.83 486.545 143.193L482.645 145.962C482.061 145.159 481.318 144.515 480.415 144.03C479.512 143.544 478.52 143.273 477.438 143.217C475.534 143.117 473.909 143.673 472.563 144.886C471.227 146.088 470.509 147.641 470.41 149.545C470.31 151.449 470.861 153.073 472.063 154.419C473.266 155.755 474.813 156.472 476.707 156.572C478.09 156.644 479.321 156.354 480.398 155.701C481.475 155.048 482.221 154.154 482.635 153.018L477.205 152.733L477.437 148.317Z" fill="white"/>
<rect x="268" y="198.016" width="310" height="50" rx="10" transform="rotate(-2 268 198.016)" fill="#482307" fill-opacity="0.5"/>
<path d="M292.374 210.095C294.581 210.018 296.449 210.672 297.977 212.057C299.505 213.431 300.307 215.191 300.381 217.335C300.456 219.48 299.78 221.296 298.352 222.785C296.923 224.262 295.105 225.04 292.898 225.117L288.042 225.287L288.288 232.329L283.322 232.503L282.552 210.438L292.374 210.095ZM292.642 220.451C293.423 220.424 294.064 220.131 294.565 219.571C295.077 219.001 295.319 218.315 295.291 217.513C295.262 216.701 294.973 216.034 294.424 215.511C293.884 214.988 293.224 214.74 292.443 214.767L287.681 214.933L287.879 220.618L292.642 220.451ZM315.459 231.38L310.651 223.997L308.262 224.08L308.526 231.622L303.56 231.796L302.789 209.731L312.362 209.397C314.558 209.32 316.41 209.959 317.916 211.314C319.423 212.668 320.213 214.402 320.287 216.515C320.34 218.046 319.976 219.408 319.194 220.603C318.412 221.787 317.339 222.674 315.973 223.264L321.408 231.173L315.459 231.38ZM307.918 214.227L308.111 219.755L312.608 219.598C313.368 219.571 313.994 219.289 314.486 218.75C314.988 218.201 315.226 217.536 315.198 216.755C315.171 215.964 314.893 215.312 314.364 214.799C313.835 214.286 313.186 214.043 312.415 214.07L307.918 214.227ZM323.923 231.085L323.152 209.02L328.118 208.847L328.888 230.911L323.923 231.085ZM350.151 208.077L356.194 207.866L356.965 229.931L352.015 230.104L351.52 215.94L346.31 226.582L343.499 226.68L337.576 216.427L338.07 230.591L333.104 230.764L332.334 208.699L338.471 208.485L344.676 219.181L350.151 208.077ZM361.181 229.784L360.411 207.719L365.376 207.546L366.147 229.61L361.181 229.784ZM385.52 206.842L385.683 211.511L379.546 211.725L380.154 229.121L375.188 229.295L374.581 211.899L368.444 212.113L368.281 207.444L385.52 206.842ZM389.195 228.805L388.425 206.741L393.39 206.567L394.161 228.632L389.195 228.805ZM412.644 205.895L418.079 205.705L410.214 228.071L405.092 228.25L395.686 206.487L401.229 206.294L407.484 221.538L412.644 205.895ZM425.947 222.847L436.113 222.492L436.276 227.161L421.144 227.69L420.374 205.625L435.349 205.102L435.512 209.771L425.503 210.121L425.641 214.087L434.589 213.774L434.752 218.444L425.804 218.756L425.947 222.847ZM451.463 221.956L460.66 221.635L460.823 226.304L446.66 226.799L445.89 204.734L450.855 204.561L451.463 221.956ZM479.281 225.66L477.772 221.835L468.808 222.148L467.569 226.068L462.26 226.254L469.781 203.9L475.637 203.695L484.715 225.47L479.281 225.66ZM470.257 217.516L476.003 217.316L472.845 209.265L470.257 217.516ZM496.874 202.954L502.418 202.76L494.476 217.546L494.74 225.12L489.775 225.293L489.51 217.72L480.572 203.523L486.193 203.327L491.862 212.541L496.874 202.954ZM518.271 223.813C516.855 224.446 515.33 224.792 513.695 224.849C512.061 224.906 510.51 224.668 509.043 224.136C507.575 223.593 506.308 222.834 505.242 221.861C504.176 220.887 503.322 219.707 502.68 218.323C502.037 216.928 501.688 215.429 501.632 213.825C501.576 212.222 501.82 210.708 502.364 209.281C502.908 207.845 503.678 206.604 504.673 205.558C505.668 204.512 506.879 203.673 508.306 203.039C509.733 202.406 511.263 202.06 512.898 202.003C515.073 201.927 517.069 202.358 518.884 203.295C520.709 204.221 522.162 205.541 523.244 207.255C524.324 208.958 524.902 210.876 524.977 213.01C525.033 214.613 524.783 216.133 524.229 217.57C523.685 218.996 522.91 220.233 521.904 221.279C520.909 222.324 519.698 223.169 518.271 223.813ZM508.762 218.345C510.066 219.561 511.655 220.136 513.529 220.07C515.402 220.005 516.947 219.32 518.163 218.017C519.378 216.703 519.953 215.093 519.886 213.188C519.82 211.283 519.134 209.722 517.831 208.507C516.527 207.281 514.938 206.7 513.064 206.766C511.19 206.831 509.646 207.521 508.43 208.835C507.215 210.139 506.64 211.743 506.707 213.648C506.773 215.553 507.458 217.119 508.762 218.345ZM537.29 224.025C536 224.07 534.774 223.883 533.612 223.465C532.462 223.047 531.467 222.456 530.627 221.693C529.787 220.93 529.114 220.005 528.607 218.918C528.1 217.821 527.824 216.642 527.78 215.383L527.309 201.891L532.259 201.718L532.728 215.147C532.77 216.365 533.207 217.366 534.037 218.15C534.866 218.924 535.895 219.289 537.124 219.246C538.342 219.204 539.343 218.768 540.127 217.938C540.91 217.097 541.281 216.068 541.238 214.85L540.769 201.421L545.719 201.248L546.191 214.74C546.249 216.416 545.896 217.955 545.132 219.357C544.379 220.76 543.313 221.876 541.935 222.705C540.556 223.525 539.008 223.965 537.29 224.025ZM565.442 200.559L565.605 205.228L559.468 205.442L560.075 222.838L555.11 223.012L554.502 205.616L548.365 205.83L548.202 201.161L565.442 200.559Z" fill="white"/>
<path d="M50 300H798V360C798 371.046 789.046 380 778 380H70C58.9543 380 50 371.046 50 360V300Z" fill="url(#paint1_linear_1_235)"/>
<path d="M50.5 300.5H797.5V360C797.5 370.77 788.77 379.5 778 379.5H70C59.2305 379.5 50.5 370.77 50.5 360V300.5Z" stroke="black" stroke-opacity="0.1"/>
<rect x="77" y="327" width="81" height="25" rx="5" fill="#482307" fill-opacity="0.25"/>
<path d="M93.6021 337.214C94.3849 337.214 95.0112 337.449 95.481 337.919C95.9549 338.384 96.1919 339.007 96.1919 339.785V344H94.4971V340.331C94.4971 339.882 94.3638 339.525 94.0972 339.258C93.8348 338.987 93.4836 338.852 93.0435 338.852C92.5822 338.852 92.2077 338.992 91.9199 339.271C91.6364 339.546 91.4946 339.91 91.4946 340.363V344H89.8062V337.373H91.4946V338.109C92.0278 337.513 92.7303 337.214 93.6021 337.214ZM101.549 337.214C102.154 337.214 102.702 337.367 103.193 337.671C103.688 337.972 104.076 338.389 104.355 338.922C104.634 339.451 104.774 340.039 104.774 340.687C104.774 341.334 104.634 341.924 104.355 342.458C104.076 342.986 103.688 343.403 103.193 343.708C102.702 344.008 102.154 344.159 101.549 344.159C100.678 344.159 99.9582 343.841 99.3911 343.207V346.469H97.7026V337.373H99.3911V338.16C99.9539 337.53 100.673 337.214 101.549 337.214ZM101.213 342.521C101.738 342.521 102.171 342.347 102.514 342C102.861 341.649 103.035 341.211 103.035 340.687C103.035 340.162 102.861 339.726 102.514 339.379C102.171 339.028 101.738 338.852 101.213 338.852C100.692 338.852 100.259 339.028 99.9116 339.379C99.5646 339.73 99.3911 340.166 99.3911 340.687C99.3911 341.207 99.5646 341.643 99.9116 341.994C100.259 342.345 100.692 342.521 101.213 342.521ZM114.01 337.214C114.759 337.214 115.358 337.439 115.806 337.887C116.259 338.336 116.485 338.935 116.485 339.684V344H114.791V340.191C114.791 339.785 114.672 339.461 114.435 339.22C114.202 338.975 113.889 338.852 113.496 338.852C113.081 338.852 112.744 338.977 112.486 339.227C112.228 339.476 112.099 339.806 112.099 340.217V344H110.411V340.191C110.411 339.789 110.29 339.466 110.049 339.22C109.812 338.975 109.494 338.852 109.097 338.852C108.686 338.852 108.352 338.979 108.094 339.233C107.836 339.483 107.707 339.811 107.707 340.217V344H106.018V337.373H107.707V338.059C108.206 337.496 108.86 337.214 109.668 337.214C110.129 337.214 110.538 337.31 110.893 337.5C111.253 337.686 111.538 337.951 111.75 338.293C112.296 337.574 113.049 337.214 114.01 337.214Z" fill="white"/>
<path d="M125.888 335.031H126.98V344H125.444V336.865L123.844 337.76L123.184 336.522L125.888 335.031ZM129.614 344.102C129.322 344.102 129.075 344.004 128.872 343.81C128.673 343.615 128.573 343.372 128.573 343.08C128.573 342.788 128.673 342.542 128.872 342.343C129.075 342.14 129.322 342.039 129.614 342.039C129.91 342.039 130.158 342.14 130.357 342.343C130.556 342.542 130.655 342.788 130.655 343.08C130.655 343.372 130.556 343.615 130.357 343.81C130.158 344.004 129.91 344.102 129.614 344.102ZM132.82 335.031H133.912V344H132.375V336.865L130.776 337.76L130.116 336.522L132.82 335.031ZM136.546 344.102C136.254 344.102 136.006 344.004 135.803 343.81C135.604 343.615 135.505 343.372 135.505 343.08C135.505 342.788 135.604 342.542 135.803 342.343C136.006 342.14 136.254 342.039 136.546 342.039C136.842 342.039 137.09 342.14 137.289 342.343C137.487 342.542 137.587 342.788 137.587 343.08C137.587 343.372 137.487 343.615 137.289 343.81C137.09 344.004 136.842 344.102 136.546 344.102ZM145.249 340.687V342.14H144.208V344H142.659V342.14H138.672L138.304 340.896L142.506 335.031H144.208V340.687H145.249ZM140.005 340.687H142.659V336.979L140.005 340.687Z" fill="white" fill-opacity="0.75"/>
<rect x="168" y="327" width="145" height="25" rx="5" fill="#482307" fill-opacity="0.25"/>
<path d="M188.798 337.214C189.547 337.214 190.146 337.439 190.594 337.887C191.047 338.336 191.273 338.935 191.273 339.684V344H189.579V340.191C189.579 339.785 189.46 339.461 189.223 339.22C188.99 338.975 188.677 338.852 188.284 338.852C187.869 338.852 187.533 338.977 187.274 339.227C187.016 339.476 186.887 339.806 186.887 340.217V344H185.199V340.191C185.199 339.789 185.078 339.466 184.837 339.22C184.6 338.975 184.283 338.852 183.885 338.852C183.474 338.852 183.14 338.979 182.882 339.233C182.624 339.483 182.495 339.811 182.495 340.217V344H180.806V337.373H182.495V338.059C182.994 337.496 183.648 337.214 184.456 337.214C184.917 337.214 185.326 337.31 185.681 337.5C186.041 337.686 186.326 337.951 186.538 338.293C187.084 337.574 187.837 337.214 188.798 337.214ZM194.377 336.091C194.174 336.294 193.923 336.396 193.622 336.396C193.322 336.396 193.068 336.294 192.86 336.091C192.657 335.888 192.556 335.638 192.556 335.342C192.556 335.046 192.657 334.796 192.86 334.593C193.068 334.39 193.322 334.288 193.622 334.288C193.923 334.288 194.174 334.39 194.377 334.593C194.585 334.796 194.688 335.046 194.688 335.342C194.688 335.638 194.585 335.888 194.377 336.091ZM192.778 344V337.373H194.466V344H192.778ZM199.875 337.214C200.657 337.214 201.284 337.449 201.753 337.919C202.227 338.384 202.464 339.007 202.464 339.785V344H200.77V340.331C200.77 339.882 200.636 339.525 200.37 339.258C200.107 338.987 199.756 338.852 199.316 338.852C198.855 338.852 198.48 338.992 198.192 339.271C197.909 339.546 197.767 339.91 197.767 340.363V344H196.079V337.373H197.767V338.109C198.3 337.513 199.003 337.214 199.875 337.214ZM206.032 342.362H209.136V344H203.664V342.762L206.679 339.011H203.715V337.373H209.047V338.604L206.032 342.362ZM212.037 336.091C211.833 336.294 211.582 336.396 211.281 336.396C210.981 336.396 210.727 336.294 210.52 336.091C210.316 335.888 210.215 335.638 210.215 335.342C210.215 335.046 210.316 334.796 210.52 334.593C210.727 334.39 210.981 334.288 211.281 334.288C211.582 334.288 211.833 334.39 212.037 334.593C212.244 334.796 212.348 335.046 212.348 335.342C212.348 335.638 212.244 335.888 212.037 336.091ZM210.437 344V337.373H212.125V344H210.437ZM217.584 337.214C218.19 337.214 218.738 337.367 219.229 337.671C219.724 337.972 220.111 338.389 220.39 338.922C220.669 339.451 220.809 340.039 220.809 340.687C220.809 341.334 220.669 341.924 220.39 342.458C220.111 342.986 219.724 343.403 219.229 343.708C218.738 344.008 218.19 344.159 217.584 344.159C216.713 344.159 215.993 343.841 215.426 343.207V346.469H213.738V337.373H215.426V338.16C215.989 337.53 216.708 337.214 217.584 337.214ZM217.248 342.521C217.773 342.521 218.207 342.347 218.549 342C218.896 341.649 219.07 341.211 219.07 340.687C219.07 340.162 218.896 339.726 218.549 339.379C218.207 339.028 217.773 338.852 217.248 338.852C216.728 338.852 216.294 339.028 215.947 339.379C215.6 339.73 215.426 340.166 215.426 340.687C215.426 341.207 215.6 341.643 215.947 341.994C216.294 342.345 216.728 342.521 217.248 342.521ZM225.9 337.214C226.505 337.214 227.053 337.367 227.544 337.671C228.039 337.972 228.426 338.389 228.706 338.922C228.985 339.451 229.125 340.039 229.125 340.687C229.125 341.334 228.985 341.924 228.706 342.458C228.426 342.986 228.039 343.403 227.544 343.708C227.053 344.008 226.505 344.159 225.9 344.159C225.028 344.159 224.309 343.841 223.742 343.207V346.469H222.053V337.373H223.742V338.16C224.305 337.53 225.024 337.214 225.9 337.214ZM225.563 342.521C226.088 342.521 226.522 342.347 226.865 342C227.212 341.649 227.385 341.211 227.385 340.687C227.385 340.162 227.212 339.726 226.865 339.379C226.522 339.028 226.088 338.852 225.563 338.852C225.043 338.852 224.609 339.028 224.262 339.379C223.915 339.73 223.742 340.166 223.742 340.687C223.742 341.207 223.915 341.643 224.262 341.994C224.609 342.345 225.043 342.521 225.563 342.521ZM236.97 340.699C236.97 340.911 236.958 341.11 236.932 341.296H231.797C231.915 341.715 232.142 342.047 232.476 342.292C232.81 342.538 233.217 342.661 233.695 342.661C234.08 342.661 234.433 342.584 234.755 342.432C235.076 342.276 235.33 342.079 235.517 341.842L236.646 342.832C236.295 343.251 235.859 343.577 235.339 343.81C234.823 344.042 234.258 344.159 233.644 344.159C232.95 344.159 232.322 344.006 231.759 343.702C231.196 343.397 230.756 342.978 230.438 342.445C230.121 341.907 229.962 341.313 229.962 340.661C229.962 340.018 230.115 339.434 230.419 338.909C230.728 338.38 231.152 337.965 231.689 337.665C232.231 337.365 232.829 337.214 233.485 337.214C234.48 337.214 235.309 337.547 235.974 338.211C236.638 338.871 236.97 339.701 236.97 340.699ZM234.545 339.068C234.241 338.818 233.883 338.693 233.473 338.693C233.062 338.693 232.705 338.818 232.4 339.068C232.095 339.313 231.89 339.643 231.784 340.058H235.167C235.062 339.643 234.854 339.313 234.545 339.068ZM243.172 334.637H244.86V344H243.172V343.207C242.592 343.841 241.873 344.159 241.014 344.159C240.091 344.159 239.321 343.826 238.703 343.162C238.085 342.498 237.776 341.673 237.776 340.687C237.776 339.701 238.085 338.875 238.703 338.211C239.321 337.547 240.091 337.214 241.014 337.214C241.877 337.214 242.596 337.53 243.172 338.16V334.637ZM241.337 342.521C241.862 342.521 242.298 342.345 242.645 341.994C242.996 341.643 243.172 341.207 243.172 340.687C243.172 340.166 242.996 339.73 242.645 339.379C242.298 339.028 241.862 338.852 241.337 338.852C240.817 338.852 240.383 339.028 240.036 339.379C239.689 339.73 239.516 340.166 239.516 340.687C239.516 341.207 239.689 341.643 240.036 341.994C240.383 342.345 240.817 342.521 241.337 342.521ZM251.709 344.159C250.635 344.159 249.704 343.82 248.917 343.143L249.735 342.026C250.298 342.517 250.944 342.762 251.671 342.762C252.018 342.762 252.3 342.707 252.516 342.597C252.736 342.487 252.846 342.335 252.846 342.14C252.846 342.034 252.814 341.941 252.75 341.861C252.691 341.78 252.594 341.711 252.458 341.651C252.323 341.592 252.192 341.543 252.065 341.505C251.942 341.467 251.769 341.423 251.544 341.372C251.392 341.338 251.271 341.311 251.183 341.29C251.094 341.268 250.971 341.237 250.814 341.194C250.662 341.148 250.537 341.105 250.44 341.067C250.347 341.029 250.235 340.979 250.104 340.915C249.972 340.847 249.864 340.78 249.78 340.712C249.699 340.644 249.613 340.562 249.52 340.464C249.431 340.367 249.359 340.263 249.304 340.153C249.253 340.043 249.211 339.916 249.177 339.772C249.143 339.629 249.126 339.474 249.126 339.309C249.126 338.856 249.251 338.469 249.5 338.147C249.75 337.826 250.074 337.591 250.472 337.443C250.874 337.291 251.326 337.214 251.83 337.214C252.808 337.214 253.665 337.504 254.401 338.084L253.582 339.214C253.04 338.808 252.469 338.604 251.868 338.604C251.563 338.604 251.314 338.653 251.119 338.75C250.924 338.848 250.827 338.99 250.827 339.176C250.827 339.282 250.857 339.375 250.916 339.455C250.975 339.531 251.073 339.599 251.208 339.658C251.343 339.713 251.475 339.76 251.602 339.798C251.729 339.832 251.904 339.872 252.128 339.918C252.323 339.961 252.48 339.997 252.598 340.026C252.717 340.056 252.871 340.103 253.062 340.166C253.252 340.229 253.406 340.293 253.525 340.356C253.648 340.42 253.779 340.507 253.918 340.617C254.062 340.722 254.174 340.837 254.255 340.959C254.335 341.082 254.403 341.232 254.458 341.41C254.517 341.588 254.547 341.78 254.547 341.988C254.547 342.441 254.42 342.834 254.166 343.168C253.912 343.503 253.574 343.752 253.15 343.917C252.727 344.078 252.247 344.159 251.709 344.159ZM257.283 336.091C257.08 336.294 256.828 336.396 256.527 336.396C256.227 336.396 255.973 336.294 255.766 336.091C255.562 335.888 255.461 335.638 255.461 335.342C255.461 335.046 255.562 334.796 255.766 334.593C255.973 334.39 256.227 334.288 256.527 334.288C256.828 334.288 257.08 334.39 257.283 334.593C257.49 334.796 257.594 335.046 257.594 335.342C257.594 335.638 257.49 335.888 257.283 336.091ZM255.683 344V337.373H257.372V344H255.683ZM261.041 342.362H264.145V344H258.673V342.762L261.688 339.011H258.724V337.373H264.056V338.604L261.041 342.362ZM271.781 340.699C271.781 340.911 271.768 341.11 271.743 341.296H266.607C266.726 341.715 266.952 342.047 267.287 342.292C267.621 342.538 268.027 342.661 268.505 342.661C268.89 342.661 269.244 342.584 269.565 342.432C269.887 342.276 270.141 342.079 270.327 341.842L271.457 342.832C271.106 343.251 270.67 343.577 270.149 343.81C269.633 344.042 269.068 344.159 268.455 344.159C267.761 344.159 267.132 344.006 266.569 343.702C266.007 343.397 265.566 342.978 265.249 342.445C264.932 341.907 264.773 341.313 264.773 340.661C264.773 340.018 264.925 339.434 265.23 338.909C265.539 338.38 265.962 337.965 266.5 337.665C267.041 337.365 267.64 337.214 268.296 337.214C269.29 337.214 270.12 337.547 270.784 338.211C271.449 338.871 271.781 339.701 271.781 340.699ZM269.356 339.068C269.051 338.818 268.694 338.693 268.283 338.693C267.873 338.693 267.515 338.818 267.21 339.068C266.906 339.313 266.701 339.643 266.595 340.058H269.978C269.872 339.643 269.665 339.313 269.356 339.068Z" fill="white"/>
<path d="M280.704 342.546H284.437V344H278.533V342.75L281.745 339.296C282.033 338.971 282.255 338.676 282.412 338.414C282.572 338.147 282.653 337.881 282.653 337.614C282.653 337.259 282.524 336.971 282.266 336.751C282.007 336.531 281.677 336.421 281.275 336.421C280.56 336.421 279.936 336.785 279.403 337.513L278.336 336.51C278.645 336.01 279.069 335.613 279.606 335.316C280.143 335.02 280.729 334.872 281.364 334.872C282.211 334.872 282.903 335.122 283.44 335.621C283.982 336.12 284.252 336.755 284.252 337.525C284.252 338.016 284.149 338.458 283.941 338.852C283.734 339.241 283.453 339.626 283.097 340.007L280.704 342.546ZM290.092 344L287.985 341.556L287.287 342.312V344H285.827V334.637H287.287V340.363L290.029 337.373H291.927L289.013 340.464L292.016 344H290.092ZM296.63 337.214C297.24 337.214 297.794 337.367 298.293 337.671C298.793 337.972 299.184 338.389 299.468 338.922C299.751 339.451 299.893 340.039 299.893 340.687C299.893 341.334 299.751 341.924 299.468 342.458C299.184 342.986 298.793 343.403 298.293 343.708C297.794 344.008 297.24 344.159 296.63 344.159C296.148 344.159 295.708 344.061 295.31 343.867C294.912 343.672 294.574 343.395 294.294 343.035V344H292.834V334.637H294.294V338.332C294.569 337.976 294.906 337.701 295.304 337.506C295.706 337.312 296.148 337.214 296.63 337.214ZM294.878 342.159C295.272 342.553 295.761 342.75 296.345 342.75C296.929 342.75 297.415 342.553 297.805 342.159C298.194 341.761 298.389 341.271 298.389 340.687C298.389 340.103 298.194 339.612 297.805 339.214C297.415 338.816 296.929 338.617 296.345 338.617C295.761 338.617 295.272 338.816 294.878 339.214C294.489 339.612 294.294 340.103 294.294 340.687C294.294 341.271 294.489 341.761 294.878 342.159Z" fill="white" fill-opacity="0.75"/>
<rect y="84.202" width="100" height="100" rx="20" transform="rotate(-20 0 84.202)" fill="#E15549" fill-opacity="0.5"/>
<rect x="754.6" y="73.101" width="100" height="100" rx="20" transform="rotate(20 754.6 73.101)" fill="#E15549" fill-opacity="0.5"/>
<rect x="707.616" y="56" width="40" height="100" rx="20" transform="rotate(20 707.616 56)" fill="#E15549" fill-opacity="0.5"/>
<rect x="810.635" y="211.528" width="40" height="150" rx="20" transform="rotate(110 810.635 211.528)" fill="#E15549" fill-opacity="0.5"/>
<defs>
<linearGradient id="paint0_linear_1_235" x1="424" y1="0" x2="424" y2="804.661" gradientUnits="userSpaceOnUse">
<stop stop-color="#FFDA92" stop-opacity="0.33"/>
<stop offset="1" stop-color="white" stop-opacity="0"/>
</linearGradient>
<linearGradient id="paint1_linear_1_235" x1="424" y1="300" x2="424" y2="514.576" gradientUnits="userSpaceOnUse">
<stop stop-color="#A97C24" stop-opacity="0.15"/>
<stop offset="1" stop-color="white" stop-opacity="0"/>
</linearGradient>
</defs>
</svg>
